<svg xmlns="http://www.w3.org/2000/svg"  viewBox="0 0 100 100" width="100px" height="100px" fill-rule="evenodd" clip-rule="evenodd"><path fill="#e85654" d="M49.999,24.997c-26.234,0-47.5,10.746-47.5,24s21.266,24,47.5,24s47.5-10.746,47.5-24 S76.233,24.997,49.999,24.997z M50.002,68.997C26.843,68.997,8,60.023,8,48.995s18.841-19.998,42-19.998s42,8.97,42,19.998 C92.002,60.023,73.161,68.997,50.002,68.997z"/><ellipse cx="50" cy="48.997" fill="none" stroke="#1f212b" stroke-linecap="round" stroke-linejoin="round" stroke-miterlimit="10" stroke-width="2" rx="47" ry="24"/><path fill="none" stroke="#1f212b" stroke-linecap="round" stroke-linejoin="round" stroke-miterlimit="10" d="M74.286,32.182 C85.289,35.89,92.5,42.044,92.5,48.995c0.002,11.304-19.064,20.502-42.498,20.502S7.5,60.299,7.5,48.995S26.566,28.497,50,28.497 c1.365,0,2.715,0.031,4.048,0.092"/><path fill="none" stroke="#1f212b" stroke-linecap="round" stroke-linejoin="round" stroke-miterlimit="10" d="M62,29.35 c3.173,0.462,6.189,1.103,9,1.899"/><path fill="none" stroke="#1f212b" stroke-linecap="round" stroke-linejoin="round" stroke-miterlimit="10" d="M57,28.782 c0.672,0.055,1.339,0.118,2,0.189"/><path fill="#e85654" fill-rule="evenodd" d="M45.049,38.945h0.784c0.273,0,0.422,0.208,0.422,0.472v21.574 c0,0.286,0.23,0.506,0.522,0.506l5.953-0.006c0.295,0,0.524-0.22,0.524-0.506V38.001c0-0.278-0.236-0.508-0.524-0.508 l-7.681,0.006c-0.075,0-0.075,0.07-0.075,0.124v1.2C44.973,38.875,44.973,38.945,45.049,38.945z" clip-rule="evenodd"/><path fill="#e85654" fill-rule="evenodd" d="M56.729,61.491h5.647c0.273,0,0.564-0.214,0.677-0.498 l4.817-14.894c0-0.004,0.055-0.208,0.236-0.208c0.172,0,0.23,0.206,0.232,0.208l4.869,14.894c0.115,0.29,0.4,0.498,0.679,0.498 h5.645c0.198,0,0.311-0.096,0.372-0.176c0.109-0.146,0.121-0.33,0.085-0.442l-7.857-23.046c-0.123-0.298-0.429-0.336-0.683-0.336 H62.32c-0.065,0-0.129,0.06-0.129,0.124v1.2c0,0.062,0.063,0.124,0.129,0.124h0.776c0.287,0,0.481,0.166,0.481,0.414 c0,0.08-0.018,0.166-0.057,0.272l-7.248,21.25c-0.042,0.15-0.01,0.314,0.087,0.44C56.448,61.429,56.58,61.491,56.729,61.491z" clip-rule="evenodd"/><path fill="#e85654" fill-rule="evenodd" d="M20.748,38.937c0.271,0,0.485,0.208,0.485,0.472v21.574 c0,0.288,0.224,0.508,0.513,0.508h5.676c0.283,0,0.495-0.226,0.495-0.506v-9.074c0-0.198,0.109-0.312,0.273-0.312 c0.192,0,0.283,0.128,0.354,0.23c0.008,0.012,0.014,0.022,0.024,0.032l6.678,9.076c0.212,0.318,0.598,0.554,0.897,0.554h6.65 c0.156,0,0.329-0.11,0.41-0.262c0.087-0.164,0.065-0.35-0.061-0.526c-0.02-0.03-8.338-11.564-8.423-11.682 c-0.026-0.036-0.036-0.058-0.051-0.084c-0.018-0.032-0.036-0.07-0.042-0.104c-0.006-0.024-0.014-0.046-0.014-0.078 c0-0.098,0.049-0.196,0.101-0.302l0.006-0.014l6.984-10.22c0.089-0.142,0.089-0.33,0-0.486c-0.085-0.15-0.237-0.242-0.404-0.242 h-6.314c-0.299,0-0.689,0.236-0.904,0.55l-5.514,7.61c-0.17,0.25-0.338,0.262-0.37,0.262h-0.006c-0.154,0-0.273-0.1-0.273-0.254 v-7.662c0-0.278-0.23-0.506-0.513-0.506h-7.275c-0.067,0-0.129,0.06-0.129,0.124v1.2c0,0.064,0.061,0.124,0.129,0.124h0.619 V38.937z" clip-rule="evenodd"/><path fill="none" stroke="#1f212b" stroke-linecap="round" stroke-linejoin="round" stroke-miterlimit="10" d="M45.049,38.945h0.784c0.273,0,0.422,0.208,0.422,0.472v21.574c0,0.286,0.23,0.506,0.522,0.506l5.953-0.006 c0.295,0,0.524-0.22,0.524-0.506V38.001c0-0.278-0.236-0.508-0.524-0.508l-7.681,0.006c-0.075,0-0.075,0.07-0.075,0.124v1.2 C44.973,38.875,44.973,38.945,45.049,38.945z" clip-rule="evenodd"/><path fill="none" stroke="#1f212b" stroke-linecap="round" stroke-linejoin="round" stroke-miterlimit="10" d="M56.729,61.491h5.647c0.273,0,0.564-0.214,0.677-0.498l4.817-14.894c0-0.004,0.055-0.208,0.236-0.208 c0.172,0,0.23,0.206,0.232,0.208l4.869,14.894c0.115,0.29,0.4,0.498,0.679,0.498h5.645c0.198,0,0.311-0.096,0.372-0.176 c0.109-0.146,0.121-0.33,0.085-0.442l-7.857-23.046c-0.123-0.298-0.429-0.336-0.683-0.336H62.32c-0.065,0-0.129,0.06-0.129,0.124 v1.2c0,0.062,0.063,0.124,0.129,0.124h0.776c0.287,0,0.481,0.166,0.481,0.414c0,0.08-0.018,0.166-0.057,0.272l-7.248,21.25 c-0.042,0.15-0.01,0.314,0.087,0.44C56.448,61.429,56.58,61.491,56.729,61.491z" clip-rule="evenodd"/><path fill="none" stroke="#1f212b" stroke-linecap="round" stroke-linejoin="round" stroke-miterlimit="10" d="M20.748,38.937c0.271,0,0.485,0.208,0.485,0.472v21.574c0,0.288,0.224,0.508,0.513,0.508h5.676c0.283,0,0.495-0.226,0.495-0.506 v-9.074c0-0.198,0.109-0.312,0.273-0.312c0.192,0,0.283,0.128,0.354,0.23c0.008,0.012,0.014,0.022,0.024,0.032l6.678,9.076 c0.212,0.318,0.598,0.554,0.897,0.554h6.65c0.156,0,0.329-0.11,0.41-0.262c0.087-0.164,0.065-0.35-0.061-0.526 c-0.02-0.03-8.338-11.564-8.423-11.682c-0.026-0.036-0.036-0.058-0.051-0.084c-0.018-0.032-0.036-0.07-0.042-0.104 c-0.006-0.024-0.014-0.046-0.014-0.078c0-0.098,0.049-0.196,0.101-0.302l0.006-0.014l6.984-10.22c0.089-0.142,0.089-0.33,0-0.486 c-0.085-0.15-0.237-0.242-0.404-0.242h-6.314c-0.299,0-0.689,0.236-0.904,0.55l-5.514,7.61c-0.17,0.25-0.338,0.262-0.37,0.262 h-0.006c-0.154,0-0.273-0.1-0.273-0.254v-7.662c0-0.278-0.23-0.506-0.513-0.506h-7.275c-0.067,0-0.129,0.06-0.129,0.124v1.2 c0,0.064,0.061,0.124,0.129,0.124h0.619V38.937z" clip-rule="evenodd"/></svg>